<?xml version="1.0" encoding="UTF-8" standalone="no"?>
<!-- Generator: Adobe Illustrator 16.0.0, SVG Export Plug-In . SVG Version: 6.00 Build 0)  -->

<svg
   xmlns:dc="http://purl.org/dc/elements/1.1/"
   xmlns:cc="http://creativecommons.org/ns#"
   xmlns:rdf="http://www.w3.org/1999/02/22-rdf-syntax-ns#"
   xmlns:svg="http://www.w3.org/2000/svg"
   xmlns="http://www.w3.org/2000/svg"
   xmlns:xlink="http://www.w3.org/1999/xlink"
   xmlns:sodipodi="http://sodipodi.sourceforge.net/DTD/sodipodi-0.dtd"
   xmlns:inkscape="http://www.inkscape.org/namespaces/inkscape"
   version="1.1"
   id="Capa_1"
   x="0px"
   y="0px"
   width="168.00301"
   height="216.71181"
   viewBox="0 0 168.003 216.71181"
   enable-background="new 0 0 307.578 246.323"
   xml:space="preserve"
   sodipodi:docname="logo-header.svg"
   inkscape:version="0.92.1 r15371"><metadata
     id="metadata163"><rdf:RDF><cc:Work
         rdf:about=""><dc:format>image/svg+xml</dc:format><dc:type
           rdf:resource="http://purl.org/dc/dcmitype/StillImage" /><dc:title></dc:title></cc:Work></rdf:RDF></metadata><defs
     id="defs161" /><sodipodi:namedview
     pagecolor="#ffffff"
     bordercolor="#666666"
     borderopacity="1"
     objecttolerance="10"
     gridtolerance="10"
     guidetolerance="10"
     inkscape:pageopacity="0"
     inkscape:pageshadow="2"
     inkscape:window-width="1855"
     inkscape:window-height="1056"
     id="namedview159"
     showgrid="false"
     inkscape:zoom="2.7098923"
     inkscape:cx="125.71044"
     inkscape:cy="123.55161"
     inkscape:window-x="65"
     inkscape:window-y="24"
     inkscape:window-maximized="1"
     inkscape:current-layer="Capa_1"
     fit-margin-top="0"
     fit-margin-left="0"
     fit-margin-right="0"
     fit-margin-bottom="0" /><g
     id="g4820"
     clip-path="none"
     transform="translate(-70.271,-17.907193)"><g
       inkscape:label="Clip"
       id="g4818"><g
         id="g4718"><g
           id="g40"><path
             d="M 70.271,205.731 V 188.988 H 73 v 16.745 h -2.729 z"
             id="path2"
             inkscape:connector-curvature="0"
             style="fill:#1b253b" /><path
             d="M 91.899,205.731 83.266,193.28 v 12.451 h -2.561 v -16.744 h 2.441 l 8.634,12.403 v -12.403 h 2.489 v 16.744 z"
             id="path4"
             inkscape:connector-curvature="0"
             style="fill:#1b253b" /><path
             d="m 114.099,205.946 v -1.756 c -1.398,1.258 -3.13,1.897 -5.146,1.897 -2.467,0 -4.364,-0.877 -5.716,-2.656 -1.209,-1.589 -1.803,-3.604 -1.803,-6.071 0,-2.538 0.642,-4.578 1.897,-6.144 1.398,-1.73 3.368,-2.584 5.905,-2.584 3.131,0 5.598,1.328 6.996,4.458 h -2.751 c -0.972,-1.518 -2.396,-2.277 -4.269,-2.277 -1.755,0 -3.083,0.664 -3.984,2.017 -0.759,1.162 -1.139,2.633 -1.139,4.411 0,1.827 0.379,3.319 1.115,4.482 0.877,1.423 2.206,2.134 3.983,2.134 1.115,0 2.136,-0.283 3.061,-0.877 0.925,-0.593 1.542,-1.423 1.85,-2.441 v -1.423 h -4.529 v -2.206 h 6.854 v 9.037 z"
             id="path6"
             inkscape:connector-curvature="0"
             style="fill:#1b253b" /><path
             d="m 124.271,205.731 v -16.744 h 12.025 v 2.372 h -9.392 v 4.576 h 7.921 v 2.372 h -7.921 v 5.076 h 9.677 v 2.348 z"
             id="path8"
             inkscape:connector-curvature="0"
             style="fill:#1b253b" /><path
             d="m 154.533,205.731 -8.634,-12.451 v 12.451 h -2.561 v -16.744 h 2.442 l 8.634,12.403 v -12.403 h 2.49 v 16.744 z"
             id="path10"
             inkscape:connector-curvature="0"
             style="fill:#1b253b" /><path
             d="m 164.613,205.731 v -16.744 h 2.728 v 16.744 z"
             id="path12"
             inkscape:connector-curvature="0"
             style="fill:#1b253b" /><path
             d="m 175.048,205.731 v -16.744 h 12.023 v 2.372 h -9.393 v 4.576 h 7.921 v 2.372 h -7.921 v 5.075 h 9.678 v 2.348 z"
             id="path14"
             inkscape:connector-curvature="0"
             style="fill:#1b253b" /><path
             d="m 205.311,197.764 c 1.065,0.759 1.588,2.017 1.588,3.771 v 4.197 h -2.703 v -4.174 c 0,-1.589 -0.76,-2.466 -2.254,-2.68 -0.213,-0.024 -0.498,-0.047 -0.9,-0.047 l -4.27,-0.024 v 6.927 h -2.656 v -16.745 h 6.451 c 1.28,0 2.253,0.095 2.939,0.261 1.067,0.261 1.897,0.759 2.516,1.494 0.711,0.854 1.065,1.921 1.065,3.226 0,1.587 -0.592,2.868 -1.776,3.794 z m -1.52,-5.598 c -0.355,-0.403 -0.831,-0.688 -1.446,-0.807 -0.355,-0.071 -0.948,-0.119 -1.731,-0.119 h -3.842 v 5.313 h 4.196 c 2.277,0 3.416,-0.854 3.416,-2.562 0,-0.734 -0.189,-1.327 -0.593,-1.825 z"
             id="path16"
             inkscape:connector-curvature="0"
             style="fill:#1b253b" /><path
             d="m 214.083,205.731 v -16.839 h 2.729 v 16.839 z m 1.851,-19.21 -1.091,0.996 h -0.712 l 1.044,-2.87 h 1.564 z"
             id="path18"
             inkscape:connector-curvature="0"
             style="fill:#1b253b" /><path
             d="m 235.428,205.731 -1.825,-4.98 h -6.049 l -1.873,4.98 h -2.895 l 6.57,-16.744 h 2.655 l 6.263,16.744 z m -4.766,-13.138 -2.23,5.882 h 4.342 z"
             id="path20"
             inkscape:connector-curvature="0"
             style="fill:#1b253b" /><path
             d="m 78.228,234.191 h -7.495 v -16.744 h 6.665 c 2.111,0 3.678,0.521 4.649,1.542 0.711,0.759 1.067,1.707 1.067,2.869 0,1.399 -0.499,2.443 -1.495,3.155 1.826,0.877 2.728,2.348 2.728,4.458 0,3.155 -2.039,4.72 -6.119,4.72 z m -0.901,-14.372 h -4.008 v 4.482 h 3.961 c 2.016,0 3.012,-0.783 3.012,-2.325 -0.001,-1.446 -0.997,-2.157 -2.965,-2.157 z m 2.774,7.091 c -0.119,-0.071 -0.308,-0.143 -0.521,-0.237 -0.213,-0.047 -0.711,-0.071 -1.447,-0.071 H 73.32 v 5.217 h 5.193 c 2.04,0 3.061,-0.83 3.061,-2.514 -0.002,-1.185 -0.499,-1.992 -1.473,-2.395 z"
             id="path22"
             inkscape:connector-curvature="0"
             style="fill:#1b253b" /><path
             d="m 92.078,234.191 v -16.744 h 2.728 v 16.744 z"
             id="path24"
             inkscape:connector-curvature="0"
             style="fill:#1b253b" /><path
             d="m 116.719,231.891 c -1.423,1.612 -3.438,2.419 -6.023,2.419 -2.562,0 -4.555,-0.807 -5.978,-2.419 -1.305,-1.518 -1.969,-3.534 -1.969,-6.072 0,-2.538 0.664,-4.578 1.992,-6.096 1.423,-1.589 3.438,-2.396 6.023,-2.396 2.516,0 4.483,0.783 5.906,2.372 1.375,1.493 2.063,3.485 2.063,5.952 10e-4,2.635 -0.661,4.698 -2.014,6.24 z m -1.897,-10.554 c -0.901,-1.187 -2.252,-1.779 -4.057,-1.779 -1.826,0 -3.202,0.616 -4.126,1.874 -0.782,1.091 -1.186,2.563 -1.186,4.411 0,1.85 0.403,3.32 1.186,4.412 0.925,1.257 2.3,1.874 4.126,1.874 3.511,0 5.266,-2.158 5.266,-6.451 0,-1.827 -0.403,-3.274 -1.209,-4.341 z"
             id="path26"
             inkscape:connector-curvature="0"
             style="fill:#1b253b" /><path
             d="m 127.012,234.191 v -16.768 h 2.703 v 14.373 h 8.112 v 2.396 z"
             id="path28"
             inkscape:connector-curvature="0"
             style="fill:#1b253b" /><path
             d="m 158.554,231.868 c -1.423,1.636 -3.438,2.442 -6.022,2.442 -2.563,0 -4.556,-0.807 -5.978,-2.442 -1.305,-1.519 -1.969,-3.559 -1.969,-6.096 0,-2.585 0.664,-4.625 1.992,-6.118 1.422,-1.613 3.438,-2.419 6.022,-2.419 2.516,0 4.482,0.781 5.906,2.37 1.375,1.519 2.063,3.511 2.063,6 0.002,2.633 -0.661,4.72 -2.014,6.263 z m -1.897,-10.602 c -0.901,-1.186 -2.253,-1.777 -4.056,-1.777 -1.827,0 -3.202,0.615 -4.128,1.872 -0.781,1.092 -1.186,2.563 -1.186,4.436 0,1.874 0.403,3.344 1.186,4.435 0.926,1.257 2.301,1.874 4.128,1.874 3.511,0 5.266,-2.158 5.266,-6.475 0,-1.852 -0.404,-3.298 -1.21,-4.365 z m -3.439,-6.286 -1.091,0.996 h -0.712 l 1.044,-2.87 h 1.565 z"
             id="path30"
             inkscape:connector-curvature="0"
             style="fill:#1b253b" /><path
             d="m 180.943,234.404 v -1.755 c -1.4,1.257 -3.131,1.897 -5.146,1.897 -2.467,0 -4.365,-0.877 -5.717,-2.656 -1.209,-1.59 -1.803,-3.604 -1.803,-6.072 0,-2.538 0.641,-4.578 1.897,-6.143 1.398,-1.73 3.367,-2.585 5.904,-2.585 3.131,0 5.598,1.329 6.997,4.459 h -2.751 c -0.973,-1.518 -2.396,-2.277 -4.271,-2.277 -1.755,0 -3.083,0.664 -3.983,2.017 -0.759,1.161 -1.14,2.633 -1.14,4.411 0,1.827 0.381,3.32 1.115,4.483 0.877,1.422 2.205,2.134 3.984,2.134 1.115,0 2.135,-0.283 3.06,-0.877 0.925,-0.593 1.542,-1.423 1.852,-2.441 v -1.424 h -4.531 v -2.205 h 6.854 v 9.036 h -2.322 v -0.002 z"
             id="path32"
             inkscape:connector-curvature="0"
             style="fill:#1b253b" /><path
             d="m 191.732,234.191 v -16.744 h 2.728 v 16.744 z"
             id="path34"
             inkscape:connector-curvature="0"
             style="fill:#1b253b" /><path
             d="m 209.874,234.619 c -2.49,0 -4.411,-0.902 -5.787,-2.682 -1.231,-1.589 -1.85,-3.628 -1.85,-6.119 0,-2.538 0.641,-4.601 1.944,-6.189 1.424,-1.732 3.414,-2.609 5.978,-2.609 3.249,0 5.55,1.494 6.878,4.482 h -2.798 c -0.975,-1.518 -2.351,-2.277 -4.104,-2.277 -1.778,0 -3.131,0.688 -4.031,2.04 -0.783,1.139 -1.163,2.609 -1.163,4.435 0,1.826 0.38,3.345 1.139,4.53 0.902,1.423 2.254,2.135 4.032,2.135 2.301,0 3.818,-1.186 4.577,-3.533 h 2.704 c -1.233,3.699 -3.984,5.787 -7.519,5.787 z"
             id="path36"
             inkscape:connector-curvature="0"
             style="fill:#1b253b" /><path
             d="m 235.203,234.191 -1.826,-4.98 h -6.047 l -1.874,4.98 h -2.894 l 6.568,-16.744 h 2.656 l 6.261,16.744 z m -4.766,-13.139 -2.229,5.882 h 4.34 z"
             id="path38"
             inkscape:connector-curvature="0"
             style="fill:#1b253b" /></g><g
           id="g156"><circle
             cx="156.283"
             cy="102.615"
             r="74.985001"
             id="circle42"
             style="fill:#c6e3de" /><circle
             cx="156.283"
             cy="102.615"
             r="74.985001"
             id="circle44"
             style="fill:#cfe8e4" /><path
             d="m 143.509,59.663 c 0,-2.459 -1.994,-4.453 -4.454,-4.453 -2.458,0 -4.452,1.993 -4.452,4.453 0,0.027 0.003,0.054 0.004,0.08 h -0.004 v 75.699 h 0.019 c 0.193,2.28 2.104,4.073 4.434,4.073 2.331,0 4.241,-1.792 4.436,-4.073 h 0.02 V 59.743 h -0.004 c -0.003,-0.027 10e-4,-0.053 10e-4,-0.08 z"
             id="path46"
             inkscape:connector-curvature="0"
             style="fill:#27ac6b" /><path
             d="m 166.3,38.064 c 0,-0.004 0,-0.008 0,-0.012 0,-2.459 -1.992,-4.453 -4.451,-4.453 -2.461,0 -4.452,1.994 -4.452,4.453 v 0 128.178 h 0.033 c -0.021,0.176 -0.033,0.354 -0.033,0.537 0,2.458 1.991,4.453 4.45,4.453 2.459,0 4.453,-1.994 4.453,-4.453 0,-0.183 -0.015,-0.36 -0.037,-0.537 h 0.037 z"
             id="path48"
             inkscape:connector-curvature="0"
             style="fill:#243257" /><path
             d="m 132.094,76.837 c 0,-2.458 -1.994,-4.452 -4.453,-4.452 -2.459,0 -4.453,1.994 -4.453,4.452 0,0.026 0.005,0.053 0.005,0.081 h -0.005 v 47.846 h 0.01 c 0.092,2.378 2.043,4.279 4.443,4.279 2.4,0 4.354,-1.901 4.443,-4.279 h 0.009 V 76.918 h -0.003 c 0,-0.028 0.004,-0.054 0.004,-0.081 z"
             id="path50"
             inkscape:connector-curvature="0"
             style="fill:#1ab19e" /><path
             d="m 120.68,107.834 c 0,-2.459 -1.994,-4.452 -4.454,-4.452 -2.458,0 -4.452,1.993 -4.452,4.452 0,0.026 0.003,0.054 0.003,0.081 h -0.003 v 30.671 h 0.001 c 0,0.012 -0.001,0.023 -0.001,0.035 0,2.46 1.994,4.453 4.452,4.453 2.46,0 4.454,-1.993 4.454,-4.453 0,-0.012 -0.002,-0.023 -0.002,-0.035 h 0.002 v -30.671 h -0.004 c 0,-0.027 0.004,-0.054 0.004,-0.081 z"
             id="path52"
             inkscape:connector-curvature="0"
             style="fill:#41aaad" /><path
             d="m 109.265,115.584 c 0,-2.459 -1.994,-4.453 -4.453,-4.453 -2.459,0 -4.452,1.994 -4.452,4.453 0,0.026 0.004,0.053 0.004,0.08 h -0.004 v 12.448 h 0.002 c 0,0.014 -0.002,0.024 -0.002,0.037 0,2.459 1.993,4.453 4.452,4.453 2.459,0 4.453,-1.994 4.453,-4.453 0,-0.012 -0.002,-0.023 -0.002,-0.037 h 0.002 v -12.448 h -0.003 c -0.001,-0.027 0.003,-0.053 0.003,-0.08 z"
             id="path54"
             inkscape:connector-curvature="0"
             style="fill:#bd4b39" /><path
             d="m 211.991,113.345 c 0,-2.458 -1.994,-4.453 -4.454,-4.453 -2.458,0 -4.452,1.994 -4.452,4.453 0,0.028 0.004,0.053 0.004,0.081 h -0.004 v 12.449 h 0.002 c 0,0.013 -0.002,0.023 -0.002,0.036 0,2.459 1.994,4.453 4.452,4.453 2.46,0 4.454,-1.994 4.454,-4.453 0,-0.012 -0.002,-0.023 -0.002,-0.036 h 0.002 v -12.449 h -0.004 c 0,-0.028 0.004,-0.052 0.004,-0.081 z"
             id="path56"
             inkscape:connector-curvature="0"
             style="fill:#dd8227" /><path
             d="m 200.582,101.656 c 0,-2.459 -1.995,-4.454 -4.454,-4.454 -2.458,0 -4.452,1.995 -4.452,4.454 0,0.027 0.004,0.054 0.004,0.08 h -0.004 v 33.395 h 0.009 c 0.092,2.378 2.044,4.278 4.443,4.278 2.401,0 4.354,-1.9 4.444,-4.278 h 0.01 v -33.395 h -0.005 c 0.001,-0.027 0.005,-0.053 0.005,-0.08 z"
             id="path58"
             inkscape:connector-curvature="0"
             style="fill:#358e82" /><path
             d="m 177.752,47.306 c 0,-2.459 -1.994,-4.454 -4.453,-4.454 -2.459,0 -4.452,1.994 -4.452,4.454 0,0.027 0.005,0.053 0.005,0.08 h -0.005 v 89.733 h 0.002 c 0,0.013 -0.002,0.024 -0.002,0.037 0,2.458 1.993,4.452 4.452,4.452 2.459,0 4.453,-1.994 4.453,-4.452 0,-0.013 -0.001,-0.023 -0.001,-0.037 h 0.001 V 47.386 h -0.004 c 0.001,-0.027 0.004,-0.053 0.004,-0.08 z"
             id="path60"
             inkscape:connector-curvature="0"
             style="fill:#41aaad" /><path
             d="m 189.166,76.156 c 0,-2.459 -1.992,-4.453 -4.452,-4.453 -2.459,0 -4.452,1.994 -4.452,4.453 0,0.027 0.004,0.054 0.004,0.081 h -0.004 v 47.846 h 0.01 c 0.091,2.378 2.044,4.279 4.442,4.279 2.401,0 4.354,-1.9 4.444,-4.279 h 0.008 V 76.237 h -0.003 c 10e-4,-0.027 0.003,-0.054 0.003,-0.081 z"
             id="path62"
             inkscape:connector-curvature="0"
             style="fill:#27ac6b" /><path
             d="m 154.884,172.647 h -0.002 c -0.048,-2.418 -2.021,-4.366 -4.45,-4.366 -2.429,0 -4.4,1.947 -4.448,4.366 h -0.004 v 4.246 c 2.918,0.4 5.89,0.634 8.904,0.689 v -4.838 c 0,-0.004 0.001,-0.007 0.001,-0.011 0,-0.004 -0.001,-0.008 -0.001,-0.01 z"
             id="path64"
             inkscape:connector-curvature="0"
             style="fill:#a1d4ca" /><g
             id="g70"><path
               d="m 192.16,36.757 c -0.306,0.604 -0.483,1.285 -0.483,2.009 0,0.027 0.004,0.053 0.004,0.081 h -0.004 v 47.845 h 0.01 c 0.091,2.378 2.043,4.28 4.442,4.28 2.401,0 4.354,-1.902 4.444,-4.28 h 0.01 V 42.115 c -2.68,-1.964 -5.492,-3.757 -8.423,-5.358 z"
               id="path66"
               inkscape:connector-curvature="0"
               style="fill:#a1d4ca" /><path
               d="m 200.581,149.663 h -0.003 c -0.047,-2.418 -2.021,-4.364 -4.448,-4.364 -2.43,0 -4.401,1.946 -4.449,4.364 h -0.004 v 19.071 c 3.106,-1.667 6.08,-3.545 8.904,-5.617 v -13.354 c 0,-0.004 0.002,-0.007 0.002,-0.011 0,-0.003 -0.002,-0.008 -0.002,-0.011 z"
               id="path68"
               inkscape:connector-curvature="0"
               style="fill:#a1d4ca" /></g><path
             d="m 177.752,30.756 c -2.898,-0.865 -5.871,-1.56 -8.905,-2.071 v 2.917 h 0.021 c -0.012,0.133 -0.021,0.268 -0.021,0.404 0,2.46 1.994,4.454 4.452,4.454 2.459,0 4.454,-1.994 4.454,-4.453 0,-0.138 -0.01,-0.271 -0.021,-0.405 h 0.02 z"
             id="path72"
             inkscape:connector-curvature="0"
             style="fill:#a1d4ca" /><g
             id="g78"><path
               d="m 211.981,93.37 h 0.01 V 52.426 c -2.683,-2.976 -5.601,-5.731 -8.721,-8.244 -0.119,0.4 -0.187,0.824 -0.187,1.262 0,0.027 0.004,0.055 0.004,0.081 h -0.004 V 93.37 h 0.009 c 0.092,2.379 2.043,4.28 4.443,4.28 2.403,0 4.353,-1.9 4.446,-4.28 z"
               id="path74"
               inkscape:connector-curvature="0"
               style="fill:#a1d4ca" /><path
               d="m 211.99,141.113 c 0,-0.003 -0.001,-0.007 -0.001,-0.011 v -0.076 h -0.002 c -0.048,-2.418 -2.021,-4.365 -4.449,-4.365 -2.43,0 -4.402,1.947 -4.449,4.365 h -0.004 v 20.172 c 3.191,-2.553 6.171,-5.358 8.904,-8.392 v -11.683 c 0,-0.003 0.001,-0.007 0.001,-0.01 z"
               id="path76"
               inkscape:connector-curvature="0"
               style="fill:#a1d4ca" /></g><g
             id="g84"><path
               d="m 218.958,80.211 c 2.429,0 4.402,-1.947 4.449,-4.365 v 0 -0.076 c 0,-0.004 0.002,-0.008 0.002,-0.011 0,-0.004 -0.002,-0.007 -0.002,-0.011 v -6.573 c -2.463,-4.938 -5.455,-9.563 -8.902,-13.808 v 20.479 h 0.004 c 0.047,2.417 2.019,4.365 4.449,4.365 z"
               id="path80"
               inkscape:connector-curvature="0"
               style="fill:#a1d4ca" /><path
               d="m 223.412,90.259 h -0.006 c -0.069,-2.397 -2.031,-4.322 -4.446,-4.322 -2.416,0 -4.377,1.924 -4.447,4.322 h -0.006 v 59.604 c 3.448,-4.244 6.44,-8.872 8.905,-13.811 z"
               id="path82"
               inkscape:connector-curvature="0"
               style="fill:#1ab19e" /></g><g
             id="g88"><path
               d="m 93.345,111.07 c -2.416,0 -4.376,1.925 -4.446,4.323 h -0.007 v 20.133 c 2.451,5.011 5.446,9.707 8.907,14.013 v -34.146 h -0.008 c -0.069,-2.398 -2.031,-4.323 -4.446,-4.323 z"
               id="path86"
               inkscape:connector-curvature="0"
               style="fill:#1ab19e" /></g><g
             id="g94"><path
               d="m 184.713,134.528 c -2.459,0 -4.452,1.994 -4.452,4.453 0,0.027 0.004,0.053 0.004,0.081 h -0.004 v 34.622 c 3.063,-1.033 6.034,-2.261 8.904,-3.664 v -30.958 h -0.003 c 0,-0.027 0.003,-0.054 0.003,-0.081 0.001,-2.459 -1.992,-4.453 -4.452,-4.453 z"
               id="path90"
               inkscape:connector-curvature="0"
               style="fill:#a1d4ca" /><path
               d="m 180.261,31.548 v 30.009 h 0.01 c 0.091,2.378 2.044,4.28 4.442,4.28 2.401,0 4.354,-1.901 4.444,-4.28 h 0.008 V 35.211 c -2.87,-1.402 -5.841,-2.629 -8.904,-3.663 z"
               id="path92"
               inkscape:connector-curvature="0"
               style="fill:#a1d4ca" /></g><g
             id="g100"><path
               d="m 139.055,145.838 c -2.458,0 -4.452,1.994 -4.452,4.453 0,0.026 0.003,0.054 0.004,0.079 h -0.004 v 24.042 c 2.898,0.875 5.871,1.578 8.906,2.1 V 150.37 h -0.004 c 0,-0.025 0.004,-0.053 0.004,-0.079 0,-2.459 -1.994,-4.453 -4.454,-4.453 z"
               id="path96"
               inkscape:connector-curvature="0"
               style="fill:#a1d4ca" /><path
               d="m 134.603,30.818 v 13.61 h 0.004 c 0.047,2.419 2.019,4.366 4.448,4.366 2.428,0 4.401,-1.947 4.449,-4.366 h 0.002 v -0.076 c 0,-0.004 0.002,-0.007 0.002,-0.011 0,-0.003 -0.002,-0.007 -0.002,-0.01 V 28.72 c -3.033,0.52 -6.005,1.225 -8.903,2.098 z"
               id="path98"
               inkscape:connector-curvature="0"
               style="fill:#a1d4ca" /></g><g
             id="g106"><path
               d="m 120.68,36.608 c -3.107,1.68 -6.082,3.574 -8.906,5.661 v 50.22 h 0.003 c 0,0.026 -0.003,0.054 -0.003,0.08 0,2.459 1.994,4.453 4.452,4.453 2.459,0 4.454,-1.994 4.454,-4.453 0,-0.026 -0.003,-0.054 -0.004,-0.08 h 0.004 z"
               id="path102"
               inkscape:connector-curvature="0"
               style="fill:#a1d4ca" /><path
               d="m 116.227,149.608 c -2.459,0 -4.453,1.995 -4.453,4.453 0,0.137 0.009,0.271 0.021,0.405 h -0.021 v 8.497 c 2.824,2.086 5.797,3.979 8.903,5.66 v -14.158 h -0.02 c 0.013,-0.134 0.021,-0.27 0.021,-0.405 0.001,-2.459 -1.993,-4.452 -4.451,-4.452 z"
               id="path104"
               inkscape:connector-curvature="0"
               style="fill:#a1d4ca" /></g><g
             id="g112"><path
               d="m 109.266,44.207 c -3.194,2.575 -6.175,5.405 -8.906,8.463 v 47.358 h 0.004 c 0,0.027 -0.004,0.053 -0.004,0.08 0,2.459 1.993,4.453 4.452,4.453 2.459,0 4.454,-1.994 4.454,-4.453 0,-0.026 -0.003,-0.053 -0.004,-0.08 h 0.004 z"
               id="path108"
               inkscape:connector-curvature="0"
               style="fill:#a1d4ca" /><path
               d="m 104.811,138.926 c -2.459,0 -4.452,1.994 -4.452,4.453 0,0.137 0.009,0.271 0.021,0.404 h -0.021 v 8.778 c 2.731,3.056 5.71,5.887 8.903,8.462 v -17.24 h -0.02 c 0.012,-0.134 0.021,-0.268 0.021,-0.404 0.002,-2.459 -1.992,-4.453 -4.452,-4.453 z"
               id="path110"
               inkscape:connector-curvature="0"
               style="fill:#a1d4ca" /></g><g
             id="g118"><path
               d="m 123.188,35.317 v 26.01 h 0.01 c 0.092,2.377 2.043,4.279 4.443,4.279 2.4,0 4.354,-1.902 4.443,-4.279 h 0.009 V 31.621 c -3.062,1.044 -6.034,2.282 -8.905,3.696 z"
               id="path114"
               inkscape:connector-curvature="0"
               style="fill:#a1d4ca" /><path
               d="m 127.641,135.575 c -2.416,0 -4.376,1.926 -4.445,4.323 h -0.008 v 30.018 c 2.871,1.413 5.845,2.652 8.907,3.695 v -33.713 h -0.007 c -0.07,-2.398 -2.031,-4.323 -4.447,-4.323 z"
               id="path116"
               inkscape:connector-curvature="0"
               style="fill:#a1d4ca" /></g><path
             d="m 181.058,155.548 c -0.592,0.249 -1.121,0.581 -1.581,0.979 -1.824,1.325 -3.396,3.14 -5.357,3.211 -1.533,0.059 -5.44,0.331 -6.471,-0.575 -2.716,-2.376 -4.592,-2.62 -4.592,-2.62 l -10e-4,0.004 c -0.861,-0.21 -1.795,-0.163 -2.675,0.203 -2.201,0.917 -3.24,3.442 -2.325,5.641 0.815,1.958 2.91,2.999 4.912,2.552 v 0.003 c 0,0 1.882,-0.207 4.646,-2.524 1.046,-0.88 4.949,-0.53 6.48,-0.44 1.958,0.118 3.491,1.957 5.284,3.32 1.627,1.473 4.021,1.964 6.184,1.062 2.985,-1.246 4.398,-4.672 3.152,-7.658 -1.241,-2.989 -4.667,-4.4 -7.656,-3.158 z"
             id="path120"
             inkscape:connector-curvature="0"
             style="fill:#243257" /><path
             d="m 93.345,93.538 c -2.459,0 -4.453,1.994 -4.453,4.453 0,0.027 0.005,0.054 0.005,0.08 h -0.005 v 37.456 c 2.451,5.011 5.446,9.706 8.906,14.011 V 98.071 h -0.005 c 0,-0.026 0.005,-0.053 0.005,-0.08 0,-2.46 -1.994,-4.453 -4.453,-4.453 z"
             id="path122"
             inkscape:connector-curvature="0"
             style="fill:#237c84" /><path
             d="m 97.798,55.694 c -3.46,4.307 -6.455,9.001 -8.906,14.011 v 12.543 h 0.002 c 0,0.012 -0.002,0.023 -0.002,0.035 0,2.459 1.994,4.453 4.453,4.453 2.459,0 4.453,-1.994 4.453,-4.453 0,-0.012 -0.002,-0.023 -0.002,-0.035 h 0.002 z"
             id="path124"
             inkscape:connector-curvature="0"
             style="fill:#a1d4ca" /><path
             d="M 86.357,129.736 V 91.787 h -0.005 c 10e-4,-0.026 0.005,-0.053 0.005,-0.079 0,-2.134 -1.501,-3.915 -3.503,-4.35 -1.02,4.926 -1.556,10.029 -1.556,15.257 0,9.566 1.794,18.71 5.059,27.121 z"
             id="path126"
             inkscape:connector-curvature="0"
             style="fill:#41aaad" /><path
             d="m 226.133,100.504 c 0,0.026 0.003,0.054 0.003,0.081 h -0.003 v 29.347 c 3.313,-8.465 5.135,-17.678 5.135,-27.316 0,-2.205 -0.102,-4.387 -0.289,-6.544 -0.129,-0.012 -0.26,-0.021 -0.393,-0.021 -2.46,0 -4.453,1.994 -4.453,4.453 z"
             id="path128"
             inkscape:connector-curvature="0"
             style="fill:#27ac6b" /><circle
             enable-background="new    "
             cx="207.539"
             cy="102.786"
             r="4.4520001"
             id="circle130"
             style="opacity:0.5;fill:#dd8227" /><circle
             cx="116.227"
             cy="69.320999"
             r="4.4520001"
             id="circle132"
             style="fill:#c6e3de" /><circle
             cx="196.127"
             cy="68.693001"
             r="4.4520001"
             id="circle134"
             style="fill:#c6e3de" /><circle
             cx="139.05499"
             cy="166.76601"
             r="4.4520001"
             id="circle136"
             style="fill:#c6e3de" /><circle
             cx="127.64"
             cy="143.379"
             r="4.4520001"
             id="circle138"
             style="fill:#cfe8e4" /><circle
             enable-background="new    "
             cx="104.811"
             cy="100.109"
             r="4.4520001"
             id="circle140"
             style="opacity:0.5;fill:#bd4b39" /><path
             d="m 154.919,50.255 c 0,-2.469 -2,-4.471 -4.47,-4.471 -2.469,0 -4.471,2.002 -4.471,4.471 0,0.026 0.004,0.054 0.004,0.081 h -0.004 v 90.087 h 0.002 c 0,0.011 -0.002,0.022 -0.002,0.036 0,2.468 2.002,4.469 4.471,4.469 2.47,0 4.47,-2.001 4.47,-4.469 0,-0.013 -0.002,-0.024 -0.002,-0.036 h 0.002 V 50.336 h -0.004 c 0.001,-0.027 0.004,-0.054 0.004,-0.081 z"
             id="path142"
             inkscape:connector-curvature="0"
             style="fill:#243257" /><g
             id="g152"><g
               id="g148"><path
                 stroke-miterlimit="10"
                 d="m 143.617,176.512 c -40.823,-6.99 -68.244,-45.742 -61.255,-86.564 6.99,-40.822 45.742,-68.244 86.563,-61.253 40.823,6.989 68.242,45.741 61.253,86.563 -6.988,40.822 -45.74,68.244 -86.561,61.254 z"
                 id="path144"
                 inkscape:connector-curvature="0"
                 style="fill:none;stroke:#1b253b;stroke-miterlimit:10" /><path
                 stroke-miterlimit="10"
                 d="m 167.831,173.292 c -17.043,-2.918 -28.489,-19.098 -25.571,-36.14 2.916,-17.042 19.095,-28.489 36.14,-25.57 17.039,2.917 28.487,19.096 25.569,36.138 -2.92,17.04 -19.096,28.488 -36.138,25.572 z"
                 id="path146"
                 inkscape:connector-curvature="0"
                 style="fill:none;stroke:#1b253b;stroke-miterlimit:10" /></g><circle
               stroke-miterlimit="10"
               cx="179.908"
               cy="159.17999"
               r="13.658"
               id="circle150"
               style="fill:none;stroke:#1b253b;stroke-miterlimit:10" /></g><path
             d="m 146.333,36.148 c 0.193,-0.462 0.454,-0.876 0.767,-1.235 1.035,-1.426 2.453,-2.654 2.509,-4.188 0.047,-1.199 0.259,-4.254 -0.448,-5.059 -1.857,-2.122 -2.05,-3.591 -2.05,-3.591 h 0.004 c -0.164,-0.673 -0.129,-1.401 0.159,-2.092 0.718,-1.72 2.69,-2.532 4.409,-1.815 1.53,0.637 2.344,2.274 1.995,3.839 l 0.003,10e-4 c 0,0 -0.16,1.471 -1.974,3.632 -0.688,0.818 -0.416,3.869 -0.347,5.067 0.094,1.529 1.531,2.729 2.597,4.131 1.15,1.272 1.535,3.144 0.83,4.834 -0.973,2.335 -3.651,3.44 -5.986,2.466 -2.337,-0.972 -3.438,-3.652 -2.468,-5.99 z"
             id="path154"
             inkscape:connector-curvature="0"
             style="fill:#243257" /></g></g></g></g><use
     height="100%"
     width="100%"
     id="use4824"
     xlink:href="#g4818"
     y="0"
     x="0"
     transform="translate(-70.271,-17.907193)" /></svg>